# xmcd CD database file
#
# Track frame offsets:
#	150
#	22927
#	39939
#	45850
#	64906
#	80853
#	93808
#	106081
#	122709
#	148991
#	163047
#
# Disc length: 2512 seconds
#
# Revision: 0
# Processed by: cddbd v1.5.2PL0 Copyright (c) Steve Scherf et al.
# Submitted via: CDex 1.51
#
DISCID=8609ce0b
DTITLE=Bo Ramsey - Fragile
DYEAR=2008
DGENRE=Blues
TTITLE0=Can't Sleep
TTITLE1=Tell Me Now
TTITLE2=Away
TTITLE3=Dreamland
TTITLE4=Fragile
TTITLE5=Burn It Down
TTITLE6=In The Woods
TTITLE7=Same For You
TTITLE8=From Buffalo To Jericho
TTITLE9=And I Wonder
TTITLE10=I Don't Know
EXTD=YEAR: 2008
EXTT0=
EXTT1=
EXTT2=
EXTT3=
EXTT4=
EXTT5=
EXTT6=
EXTT7=
EXTT8=
EXTT9=
EXTT10=
PLAYORDER=
